<svg xmlns="http://www.w3.org/2000/svg"  viewBox="0 0 256 256" width="64px" height="64px"><circle cx="128" cy="128" r="119.4" fill="#382B73"/><path fill="#291B4A" d="M162.517,57.238h-22.886l-1.317-6.292c-0.002-0.011-0.005-0.021-0.007-0.032l-4.43-21.168 c-0.243-1.158-1.264-1.988-2.447-1.988h-11.093c-1.184,0-2.205,0.83-2.447,1.988l-5.753,27.493H96.204 c-1.381,0-2.5,1.119-2.5,2.5v15.806h-5.405c-1.381,0-2.5,1.119-2.5,2.5v0.84H76.62c-1.381,0-2.5,1.119-2.5,2.5V85.6h-7.764 c-1.381,0-2.5,1.119-2.5,2.5v22.401c0,1.381,1.119,2.5,2.5,2.5h7.764v4.217c0,1.381,1.119,2.5,2.5,2.5h9.179v0.079 c0,1.381,1.119,2.5,2.5,2.5h5.405v15.807c0,1.381,1.119,2.5,2.5,2.5h6.028v9.804l-13.329-6.105 c-1.256-0.578-2.739-0.023-3.313,1.231l-17.75,38.749c-0.276,0.603-0.302,1.29-0.071,1.912c0.231,0.621,0.7,1.126,1.303,1.401 l33.161,15.19v1.897H90.083c-1.381,0-2.5,1.119-2.5,2.5v13.225c0,1.381,1.119,2.5,2.5,2.5h77.599c1.381,0,2.5-1.119,2.5-2.5 v-13.225c0-1.381-1.119-2.5-2.5-2.5h-16.55v-1.897l22.675-10.387c0.159-0.038,0.317-0.091,0.471-0.162 c0.155-0.071,0.299-0.156,0.431-0.252l9.583-4.39c0.603-0.275,1.071-0.78,1.303-1.401c0.23-0.622,0.205-1.31-0.071-1.912 l-17.75-38.749c-0.573-1.255-2.058-1.81-3.313-1.231l-13.329,6.105v-9.804h11.385c1.381,0,2.5-1.119,2.5-2.5v-15.807h5.406 c1.381,0,2.5-1.119,2.5-2.5v-0.079h9.179c1.381,0,2.5-1.119,2.5-2.5V81.384c0-1.381-1.119-2.5-2.5-2.5h-9.179v-0.84 c0-1.381-1.119-2.5-2.5-2.5h-5.406V59.738C165.017,58.357,163.897,57.238,162.517,57.238z M74.12,108.001h-5.264V90.6h5.264 V108.001z M85.799,114.718H79.12V83.884h6.679V114.718z M172.923,83.884h6.679v30.834h-6.679V83.884z M122.368,32.757h7.03 l3.386,16.18h-13.802L122.368,32.757z M116.61,60.274c0.004-0.018,0.008-0.036,0.011-0.054l1.315-6.284h15.895l1.318,6.296 c0.002,0.008,0.003,0.015,0.005,0.023l2.751,13.146c-3.464-1.418-7.254-2.201-11.223-2.201c-4.653,0-9.059,1.076-12.984,2.99 L116.61,60.274z M90.799,117.297V80.544h5.405c1.381,0,2.5-1.119,2.5-2.5V62.238h12.386l-3.2,15.294 c-0.03,0.143-0.046,0.284-0.051,0.425c-6.632,5.454-10.868,13.719-10.868,22.955c0,6.051,1.818,11.685,4.937,16.385H90.799z M98.704,135.604v-13.307h3.528v13.307H98.704z M73.427,184.092l15.667-34.203l5.605,2.567l-15.668,34.203L73.427,184.092z M83.576,188.741l15.668-34.203l2.988,1.369v41.381L83.576,188.741z M165.182,209.683v8.225H92.583v-8.225H165.182z M107.232,204.683v-81.327c5.215,4.526,12.018,7.269,19.449,7.269c7.431,0,14.234-2.743,19.45-7.269v81.328H107.232z M164.271,149.889l15.667,34.203l-5.489,2.515l-15.668-34.203L164.271,149.889z M154.235,154.485l15.669,34.203l-18.771,8.599 v-41.381L154.235,154.485z M147.005,114.956c-0.294,0.252-0.529,0.572-0.681,0.935c-4.52,5.912-11.643,9.733-19.643,9.733 c-7.999,0-15.122-3.82-19.641-9.732c-0.152-0.364-0.387-0.684-0.682-0.937c-2.766-3.99-4.388-8.831-4.388-14.043 c0-13.626,11.085-24.711,24.711-24.711s24.712,11.085,24.712,24.711C151.394,106.125,149.771,110.965,147.005,114.956z M160.017,135.604h-8.885v-13.307h8.885V135.604z M167.923,80.544v36.753h-16.467c3.119-4.7,4.937-10.334,4.937-16.385 c0-10.07-5.036-18.985-12.721-24.361l-2.995-14.313h19.339v15.806c0,1.381,1.119,2.5,2.5,2.5H167.923z"/><path fill="#291B4A" d="M138.173,177.525c0-6.336-5.155-11.491-11.491-11.491s-11.491,5.155-11.491,11.491 s5.155,11.491,11.491,11.491S138.173,183.861,138.173,177.525z M120.19,177.525c0-3.579,2.912-6.491,6.491-6.491 s6.491,2.912,6.491,6.491s-2.912,6.491-6.491,6.491S120.19,181.104,120.19,177.525z"/><g><path fill="#D3D3D3" d="M76.62,109c1.381,0,2.5-1.119,2.5-2.5V84.1c0-1.381-1.119-2.5-2.5-2.5H66.356c-1.381,0-2.5,1.119-2.5,2.5 v22.4c0,1.381,1.119,2.5,2.5,2.5H76.62z M68.856,86.6h5.264V104h-5.264V86.6z"/><path fill="#EBE7F2" d="M76.62,109c1.381,0,2.5-1.119,2.5-2.5V84.1c0-1.381-1.119-2.5-2.5-2.5H66.356 c-1.381,0-2.5,1.119-2.5,2.5v22.4c0,1.381,1.119,2.5,2.5,2.5H76.62z M65.356,106.5V84.1c0-0.552,0.449-1,1-1H76.62 c0.551,0,1,0.448,1,1v22.4c0,0.552-0.449,1-1,1H66.356C65.805,107.5,65.356,107.052,65.356,106.5z"/><path fill="#EBE7F2" d="M68.856,105.5h5.264c0.828,0,1.5-0.672,1.5-1.5V86.6c0-0.828-0.672-1.5-1.5-1.5h-5.264 c-0.828,0-1.5,0.672-1.5,1.5V104C67.356,104.828,68.028,105.5,68.856,105.5z M68.856,86.6h5.264V104h-5.264V86.6z"/><path fill="#ED9ABC" d="M88.299,115.717c1.381,0,2.5-1.119,2.5-2.5V77.383c0-1.381-1.119-2.5-2.5-2.5H76.62 c-1.381,0-2.5,1.119-2.5,2.5v35.834c0,1.381,1.119,2.5,2.5,2.5H88.299z M79.12,79.883h6.679v30.834H79.12V79.883z"/><path fill="#E54890" d="M79.12,112.217h6.679c0.828,0,1.5-0.672,1.5-1.5V79.883c0-0.828-0.672-1.5-1.5-1.5H79.12 c-0.828,0-1.5,0.672-1.5,1.5v30.834C77.62,111.545,78.292,112.217,79.12,112.217z M79.12,79.883h6.679v30.834H79.12V79.883z"/><path fill="#E54890" d="M88.299,115.717c1.381,0,2.5-1.119,2.5-2.5V77.383c0-1.381-1.119-2.5-2.5-2.5H76.62 c-1.381,0-2.5,1.119-2.5,2.5v35.834c0,1.381,1.119,2.5,2.5,2.5H88.299z M75.62,113.217V77.383c0-0.552,0.449-1,1-1h11.679 c0.551,0,1,0.448,1,1v35.834c0,0.552-0.449,1-1,1H76.62C76.069,114.217,75.62,113.768,75.62,113.217z"/><path fill="#D3D3D3" d="M182.102,115.717c1.381,0,2.5-1.119,2.5-2.5V77.383c0-1.381-1.119-2.5-2.5-2.5h-11.679 c-1.381,0-2.5,1.119-2.5,2.5v35.834c0,1.381,1.119,2.5,2.5,2.5H182.102z M172.923,79.883h6.679v30.834h-6.679V79.883z"/><path fill="#EBE7F2" d="M172.923,112.217h6.679c0.828,0,1.5-0.672,1.5-1.5V79.883c0-0.828-0.672-1.5-1.5-1.5h-6.679 c-0.828,0-1.5,0.672-1.5,1.5v30.834C171.423,111.545,172.094,112.217,172.923,112.217z M172.923,79.883h6.679v30.834h-6.679 V79.883z"/><path fill="#EBE7F2" d="M182.102,115.717c1.381,0,2.5-1.119,2.5-2.5V77.383c0-1.381-1.119-2.5-2.5-2.5h-11.679 c-1.381,0-2.5,1.119-2.5,2.5v35.834c0,1.381,1.119,2.5,2.5,2.5H182.102z M169.423,113.217V77.383c0-0.552,0.449-1,1-1h11.679 c0.551,0,1,0.448,1,1v35.834c0,0.552-0.449,1-1,1h-11.679C169.871,114.217,169.423,113.768,169.423,113.217z"/><path fill="#F9B087" d="M96.204,113.297c-1.381,0-2.5,1.119-2.5,2.5v18.307c0,1.381,1.119,2.5,2.5,2.5h8.528 c1.381,0,2.5-1.119,2.5-2.5s-1.119-2.5-2.5-2.5h-6.028v-15.807C98.704,114.416,97.585,113.297,96.204,113.297z"/><path fill="#F9B087" d="M162.517,136.604c1.381,0,2.5-1.119,2.5-2.5v-18.307c0-1.381-1.119-2.5-2.5-2.5s-2.5,1.119-2.5,2.5 v15.807h-11.385c-1.381,0-2.5,1.119-2.5,2.5s1.119,2.5,2.5,2.5H162.517z"/><path fill="#D3D3D3" d="M173.239,188.466c0.348,0,0.702-0.073,1.039-0.229c1.256-0.574,1.807-2.059,1.231-3.313l-17.751-38.75 c-0.574-1.255-2.059-1.81-3.313-1.231c-1.256,0.574-1.807,2.059-1.231,3.313l17.751,38.75 C171.385,187.924,172.291,188.466,173.239,188.466z"/><path fill="#EBE7F2" d="M173.239,188.466c0.348,0,0.702-0.073,1.039-0.229c1.256-0.574,1.807-2.059,1.231-3.313l-17.751-38.75 c-0.42-0.917-1.326-1.46-2.273-1.46c-0.349,0-0.703,0.073-1.04,0.229c-1.256,0.574-1.807,2.059-1.231,3.313l17.751,38.75 C171.385,187.924,172.291,188.466,173.239,188.466z M154.549,146.866c0.093-0.25,0.278-0.449,0.524-0.562 c0.132-0.061,0.271-0.091,0.413-0.091c0.39,0,0.747,0.229,0.909,0.585l17.751,38.75c0.111,0.243,0.121,0.514,0.028,0.765 c-0.093,0.25-0.278,0.449-0.524,0.562c-0.131,0.06-0.269,0.091-0.411,0.091c-0.391,0-0.748-0.229-0.911-0.585l-17.751-38.75 C154.466,147.388,154.456,147.116,154.549,146.866z"/><path fill="#F9B087" d="M162.517,53.237H137.6c-1.381,0-2.5,1.119-2.5,2.5s1.119,2.5,2.5,2.5h22.417v15.807 c0,1.381,1.119,2.5,2.5,2.5h5.406v36.753h-21.655c-1.381,0-2.5,1.119-2.5,2.5s1.119,2.5,2.5,2.5h24.155 c1.381,0,2.5-1.119,2.5-2.5V74.044c0-1.381-1.119-2.5-2.5-2.5h-5.406V55.737C165.017,54.356,163.897,53.237,162.517,53.237z"/><path fill="#FF8639" d="M162.517,53.237H137.6c-1.381,0-2.5,1.119-2.5,2.5s1.119,2.5,2.5,2.5h22.417v15.807 c0,1.381,1.119,2.5,2.5,2.5h5.406v36.753h-21.655c-1.381,0-2.5,1.119-2.5,2.5s1.119,2.5,2.5,2.5h13.749v13.307h-11.385 c-1.381,0-2.5,1.119-2.5,2.5s1.119,2.5,2.5,2.5h13.885c1.381,0,2.5-1.119,2.5-2.5v-15.807h5.406c1.381,0,2.5-1.119,2.5-2.5 V74.044c0-1.381-1.119-2.5-2.5-2.5h-5.406V55.737C165.017,54.356,163.897,53.237,162.517,53.237z M170.423,73.044 c0.551,0,1,0.448,1,1v41.753c0,0.552-0.449,1-1,1h-5.406c-0.828,0-1.5,0.672-1.5,1.5v15.807c0,0.552-0.449,1-1,1h-13.885 c-0.551,0-1-0.448-1-1s0.449-1,1-1h11.385c0.828,0,1.5-0.672,1.5-1.5v-13.307c0-0.828-0.672-1.5-1.5-1.5h-13.749 c-0.551,0-1-0.448-1-1s0.449-1,1-1h21.655c0.828,0,1.5-0.672,1.5-1.5V76.544c0-0.828-0.672-1.5-1.5-1.5h-5.406 c-0.551,0-1-0.448-1-1V58.237c0-0.828-0.672-1.5-1.5-1.5H137.6c-0.551,0-1-0.448-1-1s0.449-1,1-1h24.917c0.551,0,1,0.448,1,1 v15.807c0,0.828,0.672,1.5,1.5,1.5H170.423z"/><path fill="#F9B087" d="M96.204,76.544c1.381,0,2.5-1.119,2.5-2.5V58.237h15.464c1.381,0,2.5-1.119,2.5-2.5s-1.119-2.5-2.5-2.5 H96.204c-1.381,0-2.5,1.119-2.5,2.5v15.807h-5.405c-1.381,0-2.5,1.119-2.5,2.5v41.753c0,1.381,1.119,2.5,2.5,2.5h18.798 c1.381,0,2.5-1.119,2.5-2.5s-1.119-2.5-2.5-2.5H90.799V76.544H96.204z"/><path fill="#FF8639" d="M96.204,76.544c1.381,0,2.5-1.119,2.5-2.5V58.237h15.464c1.381,0,2.5-1.119,2.5-2.5s-1.119-2.5-2.5-2.5 H96.204c-1.381,0-2.5,1.119-2.5,2.5v15.807h-5.405c-1.381,0-2.5,1.119-2.5,2.5v41.753c0,1.381,1.119,2.5,2.5,2.5h5.405v15.807 c0,1.381,1.119,2.5,2.5,2.5h8.528c1.381,0,2.5-1.119,2.5-2.5s-1.119-2.5-2.5-2.5h-6.028v-13.307h8.393c1.381,0,2.5-1.119,2.5-2.5 s-1.119-2.5-2.5-2.5H90.799V76.544H96.204z M90.799,114.797h16.298c0.551,0,1,0.448,1,1s-0.449,1-1,1h-8.393 c-0.828,0-1.5,0.672-1.5,1.5v13.307c0,0.828,0.672,1.5,1.5,1.5h6.028c0.551,0,1,0.448,1,1s-0.449,1-1,1h-8.528 c-0.551,0-1-0.448-1-1v-15.807c0-0.828-0.672-1.5-1.5-1.5h-5.405c-0.551,0-1-0.448-1-1V74.044c0-0.552,0.449-1,1-1h5.405 c0.828,0,1.5-0.672,1.5-1.5V55.737c0-0.552,0.449-1,1-1h17.964c0.551,0,1,0.448,1,1s-0.449,1-1,1H98.704 c-0.828,0-1.5,0.672-1.5,1.5v15.807c0,0.552-0.449,1-1,1h-5.405c-0.828,0-1.5,0.672-1.5,1.5v36.753 C89.299,114.125,89.97,114.797,90.799,114.797z"/><path fill="#ED9ABC" d="M148.632,199.682c0.354,0,0.709-0.075,1.041-0.228l34.62-15.858c1.256-0.574,1.807-2.059,1.231-3.313 l-17.75-38.75c-0.275-0.603-0.78-1.071-1.401-1.303s-1.31-0.206-1.912,0.071l-16.87,7.729c-0.889,0.407-1.459,1.295-1.459,2.272 v46.88c0,0.852,0.434,1.645,1.149,2.104C147.69,199.548,148.16,199.682,148.632,199.682z M151.132,151.906l13.139-6.019 l15.667,34.204l-28.806,13.195V151.906z"/><path fill="#E54890" d="M148.632,199.682c0.354,0,0.709-0.075,1.041-0.228l34.62-15.858c1.256-0.574,1.807-2.059,1.231-3.313 l-17.75-38.75c-0.275-0.603-0.78-1.071-1.401-1.303c-0.281-0.105-0.576-0.157-0.87-0.157c-0.356,0-0.712,0.076-1.042,0.228 l-16.87,7.729c-0.889,0.407-1.459,1.295-1.459,2.272v46.88c0,0.852,0.434,1.645,1.149,2.104 C147.69,199.548,148.16,199.682,148.632,199.682z M147.632,150.302c0-0.39,0.229-0.746,0.584-0.909l16.873-7.73 c0.131-0.06,0.27-0.091,0.415-0.091c0.119,0,0.235,0.021,0.346,0.063c0.247,0.092,0.452,0.282,0.561,0.522l17.75,38.75 c0.111,0.243,0.121,0.514,0.028,0.765c-0.093,0.25-0.278,0.449-0.521,0.56l-34.621,15.859c-0.131,0.06-0.271,0.091-0.416,0.091 c-0.192,0-0.378-0.055-0.541-0.159c-0.287-0.184-0.459-0.499-0.459-0.841V150.302z"/><path fill="#E54890" d="M150.322,194.55c0.245,0.157,0.527,0.238,0.81,0.238c0.212,0,0.426-0.045,0.625-0.136l28.806-13.195 c0.753-0.345,1.084-1.235,0.739-1.989l-15.667-34.204c-0.166-0.362-0.468-0.643-0.841-0.781 c-0.169-0.063-0.346-0.094-0.523-0.094c-0.214,0-0.427,0.046-0.625,0.136l-13.139,6.019c-0.533,0.244-0.875,0.777-0.875,1.364 v41.381C149.632,193.798,149.892,194.273,150.322,194.55z M151.132,151.906l13.139-6.019l15.667,34.204l-28.806,13.195V151.906z"/><path fill="#D3D3D3" d="M80.521,187.904c0.948,0,1.854-0.542,2.274-1.46l17.355-37.887c0.575-1.255,0.024-2.739-1.231-3.313 c-1.257-0.578-2.739-0.023-3.313,1.231l-17.355,37.887c-0.575,1.255-0.024,2.739,1.231,3.313 C79.819,187.831,80.174,187.904,80.521,187.904z"/><path fill="#EBE7F2" d="M80.521,187.904c0.948,0,1.854-0.542,2.274-1.46l17.355-37.887c0.575-1.255,0.024-2.739-1.231-3.313 c-0.338-0.156-0.692-0.229-1.041-0.229c-0.947,0-1.853,0.543-2.272,1.46l-17.355,37.887c-0.575,1.255-0.024,2.739,1.231,3.313 C79.819,187.831,80.174,187.904,80.521,187.904z M79.615,184.987L96.97,147.1c0.163-0.355,0.519-0.585,0.909-0.585 c0.142,0,0.282,0.031,0.417,0.093c0.242,0.111,0.427,0.31,0.52,0.56c0.093,0.25,0.083,0.522-0.029,0.765L81.432,185.82 c-0.162,0.355-0.52,0.584-0.91,0.584c-0.142,0-0.28-0.031-0.415-0.093c-0.242-0.111-0.427-0.31-0.52-0.56 C79.493,185.502,79.503,185.23,79.615,184.987z"/><path fill="#ED9ABC" d="M103.691,199.454c0.332,0.152,0.687,0.228,1.041,0.228c0.472,0,0.941-0.134,1.351-0.396 c0.716-0.459,1.149-1.252,1.149-2.104v-46.88c0-0.978-0.57-1.865-1.459-2.272l-16.87-7.729c-0.603-0.276-1.291-0.302-1.912-0.071 c-0.621,0.231-1.126,0.7-1.401,1.303l-17.75,38.75c-0.575,1.255-0.024,2.739,1.231,3.313L103.691,199.454z M89.094,145.888 l13.139,6.019v41.381l-28.806-13.195L89.094,145.888z"/><path fill="#E54890" d="M72.802,181.456l28.806,13.195c0.199,0.091,0.412,0.136,0.625,0.136c0.283,0,0.565-0.08,0.81-0.238 c0.43-0.276,0.69-0.752,0.69-1.262v-41.381c0-0.587-0.342-1.119-0.875-1.364l-13.139-6.019 c-0.198-0.091-0.411-0.136-0.625-0.136c-0.177,0-0.354,0.031-0.523,0.094c-0.373,0.139-0.675,0.42-0.841,0.781l-15.667,34.204 C71.718,180.22,72.049,181.111,72.802,181.456z M89.094,145.888l13.139,6.019v41.381l-28.806-13.195L89.094,145.888z"/><path fill="#E54890" d="M103.691,199.454c0.332,0.152,0.687,0.228,1.041,0.228c0.472,0,0.941-0.134,1.351-0.396 c0.716-0.459,1.149-1.252,1.149-2.104v-46.88c0-0.978-0.57-1.865-1.459-2.272l-16.87-7.729c-0.33-0.151-0.686-0.228-1.042-0.228 c-0.294,0-0.589,0.052-0.87,0.156c-0.621,0.231-1.126,0.7-1.401,1.303l-17.75,38.75c-0.575,1.255-0.024,2.739,1.231,3.313 L103.691,199.454z M69.204,180.907l17.751-38.751c0.109-0.239,0.314-0.428,0.559-0.52c0.112-0.042,0.229-0.063,0.348-0.063 c0.145,0,0.285,0.031,0.417,0.091l16.87,7.728c0.355,0.163,0.584,0.519,0.584,0.909v46.88c0,0.342-0.172,0.656-0.46,0.841 c-0.162,0.104-0.349,0.159-0.54,0.159c-0.144,0-0.284-0.031-0.416-0.091l-34.621-15.859c-0.242-0.111-0.427-0.31-0.52-0.56 C69.082,181.422,69.092,181.15,69.204,180.907z"/><g><path fill="#F9B087" d="M167.682,218.907c1.381,0,2.5-1.119,2.5-2.5v-13.225c0-1.381-1.119-2.5-2.5-2.5H90.083 c-1.381,0-2.5,1.119-2.5,2.5v13.225c0,1.381,1.119,2.5,2.5,2.5H167.682z M92.583,205.683h72.599v8.225H92.583V205.683z"/></g><g><path fill="#FF8639" d="M92.583,215.407h72.599c0.828,0,1.5-0.672,1.5-1.5v-8.225c0-0.828-0.672-1.5-1.5-1.5H92.583 c-0.828,0-1.5,0.672-1.5,1.5v8.225C91.083,214.736,91.755,215.407,92.583,215.407z M92.583,205.683h72.599v8.225H92.583V205.683 z"/><path fill="#FF8639" d="M167.682,218.907c1.381,0,2.5-1.119,2.5-2.5v-13.225c0-1.381-1.119-2.5-2.5-2.5H90.083 c-1.381,0-2.5,1.119-2.5,2.5v13.225c0,1.381,1.119,2.5,2.5,2.5H167.682z M89.083,216.407v-13.225c0-0.552,0.449-1,1-1h77.599 c0.551,0,1,0.448,1,1v13.225c0,0.552-0.449,1-1,1H90.083C89.532,217.407,89.083,216.959,89.083,216.407z"/></g><g><path fill="#D3D3D3" d="M156.394,96.912c0-16.383-13.329-29.712-29.712-29.712S96.971,80.529,96.971,96.912 s13.328,29.711,29.711,29.711S156.394,113.295,156.394,96.912z M101.971,96.912c0-13.626,11.085-24.712,24.711-24.712 s24.712,11.086,24.712,24.712s-11.086,24.711-24.712,24.711S101.971,110.538,101.971,96.912z"/><path fill="#D3D3D3" d="M110.062,77.868c1.158-0.001,2.197-0.811,2.444-1.989l9.861-47.123h7.03l9.585,45.8 c0.284,1.352,1.616,2.218,2.959,1.936c1.352-0.283,2.218-1.608,1.936-2.959l-10.001-47.788 c-0.242-1.158-1.264-1.988-2.447-1.988h-11.093c-1.184,0-2.205,0.83-2.447,1.988l-10.277,49.111 c-0.282,1.352,0.584,2.676,1.936,2.959C109.721,77.851,109.893,77.868,110.062,77.868z"/><path fill="#D3D3D3" d="M134.862,49.936c1.381,0,2.5-1.119,2.5-2.5s-1.119-2.5-2.5-2.5h-18.957c-1.381,0-2.5,1.119-2.5,2.5 s1.119,2.5,2.5,2.5H134.862z"/><path fill="#D3D3D3" d="M104.732,111.353c-1.381,0-2.5,1.119-2.5,2.5v89.33c0,1.381,1.119,2.5,2.5,2.5h43.899 c1.381,0,2.5-1.119,2.5-2.5v-89.33c0-1.381-1.119-2.5-2.5-2.5s-2.5,1.119-2.5,2.5v86.83h-38.899v-86.83 C107.232,112.472,106.113,111.353,104.732,111.353z"/><path fill="#D3D3D3" d="M138.173,173.524c0-6.336-5.155-11.49-11.491-11.49s-11.491,5.154-11.491,11.49 s5.155,11.491,11.491,11.491S138.173,179.86,138.173,173.524z M120.19,173.524c0-3.579,2.912-6.49,6.491-6.49 s6.491,2.911,6.491,6.49s-2.912,6.491-6.491,6.491S120.19,177.104,120.19,173.524z"/></g><g><path fill="#EBE7F2" d="M126.682,70.7c-14.453,0-26.211,11.759-26.211,26.212c0,14.453,11.758,26.211,26.211,26.211 c14.453,0,26.212-11.758,26.212-26.211C152.894,82.459,141.135,70.7,126.682,70.7z M126.682,121.623 c-13.626,0-24.711-11.085-24.711-24.711S113.056,72.2,126.682,72.2s24.712,11.086,24.712,24.712 S140.308,121.623,126.682,121.623z"/><path fill="#EBE7F2" d="M118.982,46.436h13.802c0.452,0,0.879-0.204,1.164-0.554s0.396-0.811,0.304-1.253l-3.386-16.18 c-0.145-0.695-0.758-1.193-1.468-1.193h-7.03c-0.71,0-1.323,0.498-1.468,1.193l-3.386,16.18 c-0.093,0.442,0.019,0.902,0.304,1.253C118.103,46.232,118.531,46.436,118.982,46.436z M122.368,28.756h7.03l3.386,16.18 h-13.802L122.368,28.756z"/><path fill="#EBE7F2" d="M143.672,72.551l-9.796-46.806c-0.242-1.158-1.264-1.988-2.447-1.988h-11.093 c-1.184,0-2.205,0.83-2.447,1.988l-10.097,48.25c-6.605,5.454-10.822,13.703-10.822,22.918c0,6.259,1.946,12.072,5.264,16.867 c-0.001,0.024-0.002,0.049-0.002,0.074v89.33c0,1.381,1.119,2.5,2.5,2.5h43.899c1.381,0,2.5-1.119,2.5-2.5v-89.33 c0-0.025-0.001-0.05-0.002-0.074c3.318-4.794,5.264-10.607,5.264-16.866C156.394,86.843,151.358,77.927,143.672,72.551z M149.896,112.925c-0.182,0.263-0.274,0.608-0.265,0.928v89.33c0,0.551-0.449,1-1,1h-43.899c-0.551,0-1-0.449-1-1l0.001-89.358 c0.01-0.321-0.083-0.635-0.266-0.899c-3.269-4.724-4.997-10.261-4.997-16.013c0-8.437,3.746-16.368,10.277-21.761 c0.262-0.217,0.443-0.516,0.513-0.85l10.097-48.25c0.096-0.461,0.508-0.795,0.979-0.795h11.093c0.471,0,0.883,0.334,0.979,0.796 l9.796,46.806c0.078,0.373,0.296,0.703,0.608,0.922c7.565,5.292,12.081,13.94,12.081,23.133 C154.894,102.664,153.166,108.201,149.896,112.925z"/><path fill="#EBE7F2" d="M146.755,117.99c-0.199-0.091-0.412-0.135-0.622-0.135c-0.354,0-0.705,0.126-0.983,0.367 c-5.129,4.45-11.687,6.901-18.467,6.901c-6.78,0-13.338-2.451-18.466-6.901c-0.278-0.242-0.629-0.367-0.983-0.367 c-0.211,0-0.423,0.044-0.622,0.135c-0.534,0.244-0.877,0.777-0.877,1.365v81.328c0,0.828,0.672,1.5,1.5,1.5h38.899 c0.828,0,1.5-0.672,1.5-1.5v-81.328C147.632,118.767,147.289,118.234,146.755,117.99z M146.132,200.683h-38.899v-81.328 c5.215,4.526,12.018,7.268,19.449,7.268c7.431,0,14.234-2.743,19.45-7.269V200.683z"/><path fill="#EBE7F2" d="M113.697,71.691c0.224,0,0.449-0.05,0.658-0.152c3.861-1.884,8.008-2.839,12.327-2.839 c3.685,0,7.269,0.703,10.655,2.089c0.183,0.075,0.376,0.112,0.568,0.112c0.345,0,0.686-0.119,0.96-0.347 c0.427-0.355,0.622-0.917,0.508-1.46l-4.074-19.465c-0.145-0.695-0.758-1.193-1.468-1.193h-15.895 c-0.71,0-1.323,0.498-1.468,1.193l-4.239,20.255c-0.117,0.56,0.095,1.139,0.547,1.491 C113.044,71.583,113.37,71.691,113.697,71.691z M117.936,49.936h15.895l4.074,19.465c-3.464-1.418-7.254-2.201-11.223-2.201 c-4.653,0-9.06,1.076-12.984,2.991L117.936,49.936z"/><g><path fill="#EBE7F2" d="M138.173,173.524c0-6.336-5.155-11.49-11.491-11.49s-11.491,5.154-11.491,11.49 s5.155,11.491,11.491,11.491S138.173,179.86,138.173,173.524z M116.69,173.524c0-5.509,4.482-9.99,9.991-9.99 s9.991,4.482,9.991,9.99c0,5.509-4.482,9.991-9.991,9.991S116.69,179.034,116.69,173.524z"/><path fill="#EBE7F2" d="M134.673,173.524c0-4.406-3.585-7.99-7.991-7.99s-7.991,3.584-7.991,7.99 c0,4.406,3.585,7.991,7.991,7.991S134.673,177.931,134.673,173.524z M120.19,173.524c0-3.579,2.912-6.49,6.491-6.49 s6.491,2.911,6.491,6.49s-2.912,6.491-6.491,6.491S120.19,177.104,120.19,173.524z"/></g></g></g></svg>